<svg width="28" height="28" viewBox="0 0 28 28" fill="none" xmlns="http://www.w3.org/2000/svg">
<path d="M14.0001 27.333C6.63608 27.333 0.666748 21.3637 0.666748 13.9997C0.666748 6.63572 6.63608 0.666382 14.0001 0.666382C21.3641 0.666382 27.3334 6.63572 27.3334 13.9997C27.3334 21.3637 21.3641 27.333 14.0001 27.333ZM9.85341 15.5597L9.87075 15.5504L11.0307 19.377C11.1801 19.7917 11.3854 19.8664 11.6347 19.8317C11.8854 19.7984 12.0174 19.6637 12.1814 19.5064L13.7654 17.9757L17.1654 20.493C17.7867 20.8357 18.2334 20.6584 18.3881 19.917L20.5974 9.48771C20.8414 8.51705 20.4147 8.12771 19.6614 8.43705L6.68408 13.4504C5.79875 13.805 5.80408 14.301 6.52408 14.521L9.85341 15.561V15.5597Z" fill="#333333"/>
</svg>
