<svg width="17" height="26" viewBox="0 0 17 26" fill="none" xmlns="http://www.w3.org/2000/svg">
<path d="M7.41196 25.12V0.679999H10.012V25.12H7.41196ZM8.34796 22.312C6.89196 22.312 5.49663 22.1213 4.16196 21.74C2.82729 21.3413 1.75263 20.83 0.937961 20.206L2.36796 17.034C3.14796 17.5887 4.06663 18.048 5.12396 18.412C6.19863 18.7587 7.28196 18.932 8.37396 18.932C9.20596 18.932 9.87329 18.854 10.376 18.698C10.896 18.5247 11.2773 18.2907 11.52 17.996C11.7626 17.7013 11.884 17.3633 11.884 16.982C11.884 16.4967 11.6933 16.1153 11.312 15.838C10.9306 15.5433 10.428 15.3093 9.80396 15.136C9.17996 14.9453 8.48663 14.772 7.72396 14.616C6.97863 14.4427 6.22463 14.2347 5.46196 13.992C4.71663 13.7493 4.03196 13.4373 3.40796 13.056C2.78396 12.6747 2.27263 12.172 1.87396 11.548C1.49263 10.924 1.30196 10.1267 1.30196 9.156C1.30196 8.116 1.57929 7.17133 2.13396 6.322C2.70596 5.45533 3.55529 4.77067 4.68196 4.268C5.82596 3.748 7.25596 3.488 8.97196 3.488C10.116 3.488 11.2426 3.62667 12.352 3.904C13.4613 4.164 14.4406 4.56267 15.29 5.1L13.99 8.298C13.1406 7.81267 12.2913 7.45733 11.442 7.232C10.5926 6.98933 9.76063 6.868 8.94596 6.868C8.13129 6.868 7.46396 6.96333 6.94396 7.154C6.42396 7.34467 6.05129 7.596 5.82596 7.908C5.60063 8.20267 5.48796 8.54933 5.48796 8.948C5.48796 9.416 5.67863 9.79733 6.05996 10.092C6.44129 10.3693 6.94396 10.5947 7.56796 10.768C8.19196 10.9413 8.87663 11.1147 9.62196 11.288C10.3846 11.4613 11.1386 11.6607 11.884 11.886C12.6466 12.1113 13.34 12.4147 13.964 12.796C14.588 13.1773 15.0906 13.68 15.472 14.304C15.8706 14.928 16.07 15.7167 16.07 16.67C16.07 17.6927 15.784 18.6287 15.212 19.478C14.64 20.3273 13.782 21.012 12.638 21.532C11.5113 22.052 10.0813 22.312 8.34796 22.312Z" fill="#1749B3"/>
</svg>
